<svg width="24" height="24" viewBox="0 0 24 24" fill="none" xmlns="http://www.w3.org/2000/svg">
<path d="M20.0001 12L20.7071 11.293L21.4141 12L20.7071 12.707L20.0001 12ZM5.00006 13C4.73485 13 4.48049 12.8946 4.29296 12.7071C4.10542 12.5195 4.00006 12.2652 4.00006 12C4.00006 11.7348 4.10542 11.4804 4.29296 11.2929C4.48049 11.1053 4.73485 11 5.00006 11V13ZM14.7071 5.29297L20.7071 11.293L19.2931 12.707L13.2931 6.70697L14.7071 5.29297ZM20.7071 12.707L14.7071 18.707L13.2931 17.293L19.2931 11.293L20.7071 12.707ZM20.0001 13H5.00006V11H20.0001V13Z" fill="white"/>
</svg>
