<svg width="30" height="30" viewBox="0 0 30 30" fill="none" xmlns="http://www.w3.org/2000/svg">
<path d="M5 5C4.33696 5 3.70107 5.26339 3.23223 5.73223C2.76339 6.20107 2.5 6.83696 2.5 7.5V12.5C3.16304 12.5 3.79893 12.7634 4.26777 13.2322C4.73661 13.7011 5 14.337 5 15C5 15.663 4.73661 16.2989 4.26777 16.7678C3.79893 17.2366 3.16304 17.5 2.5 17.5V22.5C2.5 23.163 2.76339 23.7989 3.23223 24.2678C3.70107 24.7366 4.33696 25 5 25H25C25.663 25 26.2989 24.7366 26.7678 24.2678C27.2366 23.7989 27.5 23.163 27.5 22.5V17.5C26.837 17.5 26.2011 17.2366 25.7322 16.7678C25.2634 16.2989 25 15.663 25 15C25 14.337 25.2634 13.7011 25.7322 13.2322C26.2011 12.7634 26.837 12.5 27.5 12.5V7.5C27.5 6.83696 27.2366 6.20107 26.7678 5.73223C26.2989 5.26339 25.663 5 25 5H5ZM5 7.5H25V10.675C23.45 11.5625 22.5 13.2125 22.5 15C22.5 16.7875 23.45 18.4375 25 19.325V22.5H5V19.325C6.55 18.4375 7.5 16.7875 7.5 15C7.5 13.2125 6.55 11.5625 5 10.675V7.5Z" fill="white"/>
</svg>
